<?xml version="1.0" encoding="UTF-8" standalone="no"?>
<!DOCTYPE svg PUBLIC "-//W3C//DTD SVG 1.1//EN"
 "http://www.w3.org/Graphics/SVG/1.1/DTD/svg11.dtd">
<!-- Generated by graphviz version 2.42.4 (0)
 -->
<!-- Title: G Pages: 1 -->
<svg width="1803pt" height="146pt"
 viewBox="0.00 0.00 1803.20 145.70" xmlns="http://www.w3.org/2000/svg" xmlns:xlink="http://www.w3.org/1999/xlink">
<g id="graph0" class="graph" transform="scale(1 1) rotate(0) translate(21.6 124.1)">
<title>G</title>
<!-- R0 -->
<g id="node1" class="node">
<title>R0</title>
<path fill="none" stroke="black" d="M84,-68C84,-68 12,-68 12,-68 6,-68 0,-62 0,-56 0,-56 0,-44 0,-44 0,-38 6,-32 12,-32 12,-32 84,-32 84,-32 90,-32 96,-38 96,-44 96,-44 96,-56 96,-56 96,-62 90,-68 84,-68"/>
<text text-anchor="middle" x="48" y="-53" font-family="Arial" font-size="10.00">R0</text>
<text text-anchor="middle" x="48" y="-42" font-family="Arial" font-size="10.00">Manual Command</text>
</g>
<!-- R1 -->
<g id="node2" class="node">
<title>R1</title>
<path fill="none" stroke="black" d="M233,-70.5C233,-70.5 148,-70.5 148,-70.5 142,-70.5 136,-64.5 136,-58.5 136,-58.5 136,-41.5 136,-41.5 136,-35.5 142,-29.5 148,-29.5 148,-29.5 233,-29.5 233,-29.5 239,-29.5 245,-35.5 245,-41.5 245,-41.5 245,-58.5 245,-58.5 245,-64.5 239,-70.5 233,-70.5"/>
<text text-anchor="middle" x="190.5" y="-58.5" font-family="Arial" font-size="10.00">R1</text>
<text text-anchor="middle" x="190.5" y="-47.5" font-family="Arial" font-size="10.00">Automated Research</text>
<text text-anchor="middle" x="190.5" y="-36.5" font-family="Arial" font-size="10.00">+ Project Memory</text>
</g>
<!-- R0&#45;&gt;R1 -->
<g id="edge1" class="edge">
<title>R0&#45;&gt;R1</title>
<path fill="none" stroke="black" d="M96.18,-50C105.64,-50 115.74,-50 125.66,-50"/>
<polygon fill="black" stroke="black" points="125.91,-53.5 135.91,-50 125.91,-46.5 125.91,-53.5"/>
</g>
<!-- R2 -->
<g id="node3" class="node">
<title>R2</title>
<path fill="none" stroke="black" d="M368,-68C368,-68 297,-68 297,-68 291,-68 285,-62 285,-56 285,-56 285,-44 285,-44 285,-38 291,-32 297,-32 297,-32 368,-32 368,-32 374,-32 380,-38 380,-44 380,-44 380,-56 380,-56 380,-62 374,-68 368,-68"/>
<text text-anchor="middle" x="332.5" y="-53" font-family="Arial" font-size="10.00">R2</text>
<text text-anchor="middle" x="332.5" y="-42" font-family="Arial" font-size="10.00">Hardened Factory</text>
</g>
<!-- R1&#45;&gt;R2 -->
<g id="edge2" class="edge">
<title>R1&#45;&gt;R2</title>
<path fill="none" stroke="black" d="M245.23,-50C254.96,-50 265.13,-50 274.94,-50"/>
<polygon fill="black" stroke="black" points="274.99,-53.5 284.99,-50 274.99,-46.5 274.99,-53.5"/>
</g>
<!-- R3 -->
<g id="node4" class="node">
<title>R3</title>
<path fill="none" stroke="black" d="M507,-102.5C507,-102.5 445,-102.5 445,-102.5 439,-102.5 433,-96.5 433,-90.5 433,-90.5 433,-73.5 433,-73.5 433,-67.5 439,-61.5 445,-61.5 445,-61.5 507,-61.5 507,-61.5 513,-61.5 519,-67.5 519,-73.5 519,-73.5 519,-90.5 519,-90.5 519,-96.5 513,-102.5 507,-102.5"/>
<text text-anchor="middle" x="476" y="-90.5" font-family="Arial" font-size="10.00">R3</text>
<text text-anchor="middle" x="476" y="-79.5" font-family="Arial" font-size="10.00">Build Command</text>
<text text-anchor="middle" x="476" y="-68.5" font-family="Arial" font-size="10.00">Operations UI</text>
</g>
<!-- R2&#45;&gt;R3 -->
<g id="edge3" class="edge">
<title>R2&#45;&gt;R3</title>
<path fill="none" stroke="black" d="M380.22,-60.57C393.83,-63.64 408.78,-67.02 422.7,-70.17"/>
<polygon fill="black" stroke="black" points="422.1,-73.62 432.62,-72.42 423.64,-66.8 422.1,-73.62"/>
</g>
<!-- V1 -->
<g id="node13" class="node">
<title>V1</title>
<polygon fill="none" stroke="black" points="526,-36 420,-36 420,0 532,0 532,-30 526,-36"/>
<polyline fill="none" stroke="black" points="526,-36 526,-30 "/>
<polyline fill="none" stroke="black" points="532,-30 526,-30 "/>
<text text-anchor="middle" x="476" y="-21" font-family="Arial" font-size="10.00">Revenue experiments</text>
<text text-anchor="middle" x="476" y="-10" font-family="Arial" font-size="10.00">can begin here</text>
</g>
<!-- R2&#45;&gt;V1 -->
<g id="edge12" class="edge">
<title>R2&#45;&gt;V1</title>
<path fill="none" stroke="black" stroke-dasharray="5,2" d="M380.22,-39.43C389.76,-37.28 399.96,-34.97 410.01,-32.7"/>
<polygon fill="black" stroke="black" points="410.99,-36.06 419.97,-30.44 409.45,-29.24 410.99,-36.06"/>
</g>
<!-- R4 -->
<g id="node5" class="node">
<title>R4</title>
<path fill="none" stroke="black" d="M672,-99C672,-99 584,-99 584,-99 578,-99 572,-93 572,-87 572,-87 572,-75 572,-75 572,-69 578,-63 584,-63 584,-63 672,-63 672,-63 678,-63 684,-69 684,-75 684,-75 684,-87 684,-87 684,-93 678,-99 672,-99"/>
<text text-anchor="middle" x="628" y="-84" font-family="Arial" font-size="10.00">R4</text>
<text text-anchor="middle" x="628" y="-73" font-family="Arial" font-size="10.00">Communication Mesh</text>
</g>
<!-- R3&#45;&gt;R4 -->
<g id="edge4" class="edge">
<title>R3&#45;&gt;R4</title>
<path fill="none" stroke="black" d="M519.18,-81.72C532.36,-81.63 547.22,-81.53 561.61,-81.44"/>
<polygon fill="black" stroke="black" points="561.99,-84.93 571.96,-81.37 561.94,-77.93 561.99,-84.93"/>
</g>
<!-- R5 -->
<g id="node6" class="node">
<title>R5</title>
<path fill="none" stroke="black" d="M820,-99C820,-99 740,-99 740,-99 734,-99 728,-93 728,-87 728,-87 728,-75 728,-75 728,-69 734,-63 740,-63 740,-63 820,-63 820,-63 826,-63 832,-69 832,-75 832,-75 832,-87 832,-87 832,-93 826,-99 820,-99"/>
<text text-anchor="middle" x="780" y="-84" font-family="Arial" font-size="10.00">R5</text>
<text text-anchor="middle" x="780" y="-73" font-family="Arial" font-size="10.00">Collective Cognition</text>
</g>
<!-- R4&#45;&gt;R5 -->
<g id="edge5" class="edge">
<title>R4&#45;&gt;R5</title>
<path fill="none" stroke="black" d="M684,-81C695.01,-81 706.64,-81 717.85,-81"/>
<polygon fill="black" stroke="black" points="717.99,-84.5 727.99,-81 717.99,-77.5 717.99,-84.5"/>
</g>
<!-- R6 -->
<g id="node7" class="node">
<title>R6</title>
<path fill="none" stroke="black" d="M956,-100.5C956,-100.5 888,-100.5 888,-100.5 882,-100.5 876,-94.5 876,-88.5 876,-88.5 876,-71.5 876,-71.5 876,-65.5 882,-59.5 888,-59.5 888,-59.5 956,-59.5 956,-59.5 962,-59.5 968,-65.5 968,-71.5 968,-71.5 968,-88.5 968,-88.5 968,-94.5 962,-100.5 956,-100.5"/>
<text text-anchor="middle" x="922" y="-88.5" font-family="Arial" font-size="10.00">R6</text>
<text text-anchor="middle" x="922" y="-77.5" font-family="Arial" font-size="10.00">Dynamic Mission</text>
<text text-anchor="middle" x="922" y="-66.5" font-family="Arial" font-size="10.00">Assembly</text>
</g>
<!-- R5&#45;&gt;R6 -->
<g id="edge6" class="edge">
<title>R5&#45;&gt;R6</title>
<path fill="none" stroke="black" d="M832.34,-80.63C843.1,-80.56 854.5,-80.48 865.41,-80.4"/>
<polygon fill="black" stroke="black" points="865.71,-83.9 875.68,-80.32 865.66,-76.9 865.71,-83.9"/>
</g>
<!-- R7 -->
<g id="node8" class="node">
<title>R7</title>
<path fill="none" stroke="black" d="M1070,-68C1070,-68 1020,-68 1020,-68 1014,-68 1008,-62 1008,-56 1008,-56 1008,-44 1008,-44 1008,-38 1014,-32 1020,-32 1020,-32 1070,-32 1070,-32 1076,-32 1082,-38 1082,-44 1082,-44 1082,-56 1082,-56 1082,-62 1076,-68 1070,-68"/>
<text text-anchor="middle" x="1045" y="-53" font-family="Arial" font-size="10.00">R7</text>
<text text-anchor="middle" x="1045" y="-42" font-family="Arial" font-size="10.00">Venture Loop</text>
</g>
<!-- R6&#45;&gt;R7 -->
<g id="edge7" class="edge">
<title>R6&#45;&gt;R7</title>
<path fill="none" stroke="black" d="M968.06,-68.83C977.83,-66.41 988.18,-63.84 997.99,-61.41"/>
<polygon fill="black" stroke="black" points="999.11,-64.74 1007.97,-58.93 997.42,-57.94 999.11,-64.74"/>
</g>
<!-- R8 -->
<g id="node9" class="node">
<title>R8</title>
<path fill="none" stroke="black" d="M1327,-70.5C1327,-70.5 1247,-70.5 1247,-70.5 1241,-70.5 1235,-64.5 1235,-58.5 1235,-58.5 1235,-41.5 1235,-41.5 1235,-35.5 1241,-29.5 1247,-29.5 1247,-29.5 1327,-29.5 1327,-29.5 1333,-29.5 1339,-35.5 1339,-41.5 1339,-41.5 1339,-58.5 1339,-58.5 1339,-64.5 1333,-70.5 1327,-70.5"/>
<text text-anchor="middle" x="1287" y="-58.5" font-family="Arial" font-size="10.00">R8</text>
<text text-anchor="middle" x="1287" y="-47.5" font-family="Arial" font-size="10.00">Portfolio +</text>
<text text-anchor="middle" x="1287" y="-36.5" font-family="Arial" font-size="10.00">Capability Economy</text>
</g>
<!-- R7&#45;&gt;R8 -->
<g id="edge8" class="edge">
<title>R7&#45;&gt;R8</title>
<path fill="none" stroke="black" d="M1082.33,-51.15C1094.9,-51.5 1109.07,-51.83 1122,-52 1154.44,-52.43 1162.56,-52.36 1195,-52 1204.62,-51.89 1214.8,-51.73 1224.75,-51.53"/>
<polygon fill="black" stroke="black" points="1225.06,-55.02 1234.99,-51.32 1224.92,-48.03 1225.06,-55.02"/>
</g>
<!-- V3 -->
<g id="node15" class="node">
<title>V3</title>
<polygon fill="none" stroke="black" points="1189,-40 1122,-40 1122,-4 1195,-4 1195,-34 1189,-40"/>
<polyline fill="none" stroke="black" points="1189,-40 1189,-34 "/>
<polyline fill="none" stroke="black" points="1195,-34 1189,-34 "/>
<text text-anchor="middle" x="1158.5" y="-25" font-family="Arial" font-size="10.00">Multi&#45;venture</text>
<text text-anchor="middle" x="1158.5" y="-14" font-family="Arial" font-size="10.00">portfolio</text>
</g>
<!-- R7&#45;&gt;V3 -->
<g id="edge15" class="edge">
<title>R7&#45;&gt;V3</title>
<path fill="none" stroke="black" stroke-dasharray="5,2" d="M1082.2,-40.91C1091.74,-38.51 1102.15,-35.9 1112.11,-33.4"/>
<polygon fill="black" stroke="black" points="1113.02,-36.78 1121.86,-30.95 1111.31,-29.99 1113.02,-36.78"/>
</g>
<!-- R9 -->
<g id="node10" class="node">
<title>R9</title>
<path fill="none" stroke="black" d="M1478,-68C1478,-68 1391,-68 1391,-68 1385,-68 1379,-62 1379,-56 1379,-56 1379,-44 1379,-44 1379,-38 1385,-32 1391,-32 1391,-32 1478,-32 1478,-32 1484,-32 1490,-38 1490,-44 1490,-44 1490,-56 1490,-56 1490,-62 1484,-68 1478,-68"/>
<text text-anchor="middle" x="1434.5" y="-53" font-family="Arial" font-size="10.00">R9</text>
<text text-anchor="middle" x="1434.5" y="-42" font-family="Arial" font-size="10.00">Debugger + Evolution</text>
</g>
<!-- R8&#45;&gt;R9 -->
<g id="edge9" class="edge">
<title>R8&#45;&gt;R9</title>
<path fill="none" stroke="black" d="M1339.3,-50C1348.77,-50 1358.78,-50 1368.59,-50"/>
<polygon fill="black" stroke="black" points="1368.72,-53.5 1378.72,-50 1368.72,-46.5 1368.72,-53.5"/>
</g>
<!-- R10 -->
<g id="node11" class="node">
<title>R10</title>
<path fill="none" stroke="black" d="M1610,-68C1610,-68 1542,-68 1542,-68 1536,-68 1530,-62 1530,-56 1530,-56 1530,-44 1530,-44 1530,-38 1536,-32 1542,-32 1542,-32 1610,-32 1610,-32 1616,-32 1622,-38 1622,-44 1622,-44 1622,-56 1622,-56 1622,-62 1616,-68 1610,-68"/>
<text text-anchor="middle" x="1576" y="-53" font-family="Arial" font-size="10.00">R10</text>
<text text-anchor="middle" x="1576" y="-42" font-family="Arial" font-size="10.00">Self&#45;Maintenance</text>
</g>
<!-- R9&#45;&gt;R10 -->
<g id="edge10" class="edge">
<title>R9&#45;&gt;R10</title>
<path fill="none" stroke="black" d="M1490.23,-50C1499.88,-50 1509.92,-50 1519.58,-50"/>
<polygon fill="black" stroke="black" points="1519.87,-53.5 1529.87,-50 1519.87,-46.5 1519.87,-53.5"/>
</g>
<!-- R11 -->
<g id="node12" class="node">
<title>R11</title>
<path fill="none" stroke="black" d="M1748,-70.5C1748,-70.5 1674,-70.5 1674,-70.5 1668,-70.5 1662,-64.5 1662,-58.5 1662,-58.5 1662,-41.5 1662,-41.5 1662,-35.5 1668,-29.5 1674,-29.5 1674,-29.5 1748,-29.5 1748,-29.5 1754,-29.5 1760,-35.5 1760,-41.5 1760,-41.5 1760,-58.5 1760,-58.5 1760,-64.5 1754,-70.5 1748,-70.5"/>
<text text-anchor="middle" x="1711" y="-58.5" font-family="Arial" font-size="10.00">R11</text>
<text text-anchor="middle" x="1711" y="-47.5" font-family="Arial" font-size="10.00">Federated Artificial</text>
<text text-anchor="middle" x="1711" y="-36.5" font-family="Arial" font-size="10.00">Organizations</text>
</g>
<!-- R10&#45;&gt;R11 -->
<g id="edge11" class="edge">
<title>R10&#45;&gt;R11</title>
<path fill="none" stroke="black" d="M1622.03,-50C1631.54,-50 1641.7,-50 1651.62,-50"/>
<polygon fill="black" stroke="black" points="1651.83,-53.5 1661.83,-50 1651.83,-46.5 1651.83,-53.5"/>
</g>
<!-- V2 -->
<g id="node14" class="node">
<title>V2</title>
<polygon fill="none" stroke="black" points="830,-38 724,-38 724,-2 836,-2 836,-32 830,-38"/>
<polyline fill="none" stroke="black" points="830,-38 830,-32 "/>
<polyline fill="none" stroke="black" points="836,-32 830,-32 "/>
<text text-anchor="middle" x="780" y="-23" font-family="Arial" font-size="10.00">Opportunity → MVP</text>
<text text-anchor="middle" x="780" y="-12" font-family="Arial" font-size="10.00">→ customer evidence</text>
</g>
<!-- V1&#45;&gt;V2 -->
<g id="edge13" class="edge">
<title>V1&#45;&gt;V2</title>
<path fill="none" stroke="black" stroke-dasharray="5,2" d="M532.04,-18.36C583.19,-18.7 659.41,-19.21 713.63,-19.57"/>
<polygon fill="black" stroke="black" points="713.81,-23.07 723.83,-19.63 713.85,-16.07 713.81,-23.07"/>
</g>
<!-- V2&#45;&gt;R7 -->
<g id="edge14" class="edge">
<title>V2&#45;&gt;R7</title>
<path fill="none" stroke="black" stroke-dasharray="5,2" d="M836.13,-26.29C884.06,-31.76 952.71,-39.59 997.81,-44.73"/>
<polygon fill="black" stroke="black" points="997.56,-48.23 1007.9,-45.88 998.36,-41.27 997.56,-48.23"/>
</g>
<!-- V3&#45;&gt;R8 -->
<g id="edge16" class="edge">
<title>V3&#45;&gt;R8</title>
<path fill="none" stroke="black" stroke-dasharray="5,2" d="M1195.07,-29.87C1204.28,-31.91 1214.46,-34.17 1224.58,-36.41"/>
<polygon fill="black" stroke="black" points="1224.12,-39.89 1234.64,-38.63 1225.64,-33.05 1224.12,-39.89"/>
</g>
</g>
</svg>
